PathFileType	4	(X/Y/Z)	marker_full_rot.trc																																																				
DataRate	CameraRate	NumFrames	NumMarkers	Units	OrigDataRate	OrigDataStartFrame	OrigNumFrames																																																
512	512	10	18	m	512	109	124																																																
Frame#	Time	XIPH			STER			CLAV_SC			CLAV_AC			SCAP_CP			SCAP_AA			SCAP_TS			SCAP_IA			DELT			ARMl			EPICl			EPICm			LARM_ant			LARM_post			LARM_elb			LARM_dist			STYLrad			STYLulna		
		X1	Y1	Z1	X2	Y2	Z2	X3	Y3	Z3	X4	Y4	Z4	X5	Y5	Z5	X6	Y6	Z6	X7	Y7	Z7	X8	Y8	Z8	X9	Y9	Z9	X10	Y10	Z10	X11	Y11	Z11	X12	Y12	Z12	X13	Y13	Z13	X14	Y14	Z14	X15	Y15	Z15	X16	Y16	Z16	X17	Y17	Z17	X18	Y18	Z18
																																																							
109	0.210731707317073	0.784765380859375	-0.363732696533203	0.548918884277344	0.779989807128906	-0.330347717285156	0.698998107910156	0.759440490722656	-0.316167724609375	0.7179873046875	0.594614603678386	-0.259064097086588	0.734960388183594	0.653320983886719	-0.298267211914062	0.712116455078125	0.563523254394531	-0.242073120117187	0.730679931640625	0.676492492675781	-0.141022247314453	0.709463562011719	0.650106872558594	-0.133348327636719	0.576296081542969	0.512463806152344	-0.419236511230469	0.667275268554688	0.506257507324219	-0.456982788085938	0.661591125488281	0.494365703582764	-0.52221170425415	0.624041156768799	0.54180126953125	-0.54064404296875	0.5878515625	0.544997802734375	-0.610843383789063	0.648655029296875	0.472547546386719	-0.614770629882812	0.631206420898437	0.494906463623047	-0.595369323730469	0.594429077148438	0.485903717041016	-0.689874389648437	0.681756408691406	0.478711975097656	-0.807419067382812	0.694245788574219	0.456214599609375	-0.799282104492187	0.647589050292969
110	0.212682926829268	0.78477001953125	-0.363893280029297	0.549046569824219	0.780050476074219	-0.330383117675781	0.699233703613281	0.759503601074219	-0.315996826171875	0.718176818847656	0.595172607421875	-0.258272247314453	0.736219970703125	0.653793151855469	-0.298202056884766	0.713582824707031	0.56387890625	-0.241680816650391	0.732149597167969	0.67628076171875	-0.141064117431641	0.709500061035156	0.649462768554688	-0.134125564575195	0.576613586425781	0.512902282714844	-0.419744689941406	0.674085144042969	0.506786895751953	-0.4576845703125	0.669445068359375	0.494236254374186	-0.527531415303548	0.634003471374512	0.541924865722656	-0.543122680664063	0.597381042480469	0.546111206054687	-0.611680480957031	0.6601640625	0.473564483642578	-0.616338317871094	0.643244445800781	0.495247863769531	-0.59783056640625	0.605777099609375	0.487357757568359	-0.689965087890625	0.695805419921875	0.480301300048828	-0.807127624511719	0.711630554199219	0.457912048339844	-0.800426452636719	0.664677551269531
111	0.214634146341463	0.784792846679687	-0.364088714599609	0.549202331542969	0.780066223144531	-0.330324188232422	0.699520263671875	0.759564147949219	-0.316154663085937	0.718494812011719	0.595730611165365	-0.257480397542318	0.737479553222656	0.653870971679688	-0.297730224609375	0.714797546386719	0.564618896484375	-0.241017333984375	0.733299377441406	0.676102600097656	-0.141151016235352	0.709529052734375	0.649016235351562	-0.134664123535156	0.576691589355469	0.513373229980469	-0.420063995361328	0.680730285644531	0.507448486328125	-0.458130889892578	0.677092895507812	0.494106805165609	-0.532851126352946	0.643965785980225	0.542320617675781	-0.545371154785156	0.606395263671875	0.547328125	-0.612193420410156	0.671275390625	0.474606506347656	-0.617521545410156	0.654966369628906	0.495985626220703	-0.599909790039063	0.61677099609375	0.488687042236328	-0.689614135742188	0.709409301757813	0.481857360839844	-0.806445251464844	0.728305786132813	0.459685150146484	-0.801106994628906	0.681286499023438
112	0.216585365853658	0.784768005371094	-0.364169586181641	0.549277099609375	0.780062622070312	-0.330422393798828	0.699593322753906	0.759567077636719	-0.316369079589844	0.718736206054687	0.596288614908854	-0.256688547770182	0.738739135742188	0.654352783203125	-0.297496551513672	0.715994201660156	0.565244445800781	-0.240345077514648	0.734641174316406	0.675958801269531	-0.141201416015625	0.7095458984375	0.648476989746094	-0.135291137695313	0.576939025878906	0.513822937011719	-0.420212005615234	0.687088562011719	0.508093170166016	-0.458347595214844	0.68442578125	0.493977355957031	-0.538170837402344	0.653928100585938	0.542947448730469	-0.547370666503906	0.615755004882813	0.548488220214844	-0.612330200195312	0.68198095703125	0.475546295166016	-0.6183037109375	0.666364807128906	0.496776275634766	-0.601660095214844	0.62765869140625	0.490067840576172	-0.688979858398438	0.722527099609375	0.483656433105469	-0.805318542480469	0.744465881347656	0.461299011230469	-0.801359924316406	0.697252136230469
113	0.218536585365854	0.784772827148437	-0.364318786621094	0.549370849609375	0.780077331542969	-0.33044091796875	0.699713745117188	0.759556518554688	-0.316314544677734	0.718883117675781	0.596846618652344	-0.255896697998047	0.739998718261719	0.654718505859375	-0.297307434082031	0.717318725585938	0.565665649414062	-0.239763412475586	0.735871154785156	0.67580224609375	-0.141272064208984	0.709559692382813	0.647981201171875	-0.136039138793945	0.57708740234375	0.514524597167969	-0.4201357421875	0.69317822265625	0.508933868408203	-0.458347991943359	0.691406311035156	0.494798446655274	-0.538751220703125	0.662722808837891	0.543644897460937	-0.548873107910156	0.624521606445313	0.549950378417969	-0.612362487792969	0.692490356445313	0.476695281982422	-0.618768676757813	0.677305297851562	0.497425109863281	-0.603328674316406	0.638094604492187	0.491488403320312	-0.688072937011719	0.735142700195312	0.485321594238281	-0.803902526855469	0.759889709472656	0.462953735351563	-0.801162475585937	0.712672668457031
114	0.220487804878049	0.7847392578125	-0.364460113525391	0.549461730957031	0.780077514648438	-0.330518920898437	0.699824951171875	0.759559814453125	-0.316510925292969	0.719092407226563	0.597597106933594	-0.255529243469238	0.740819183349609	0.655068969726562	-0.297092803955078	0.718516784667969	0.566392272949219	-0.239048843383789	0.737060119628906	0.675650146484375	-0.141298324584961	0.709582946777344	0.64750634765625	-0.136717971801758	0.577141174316406	0.515151428222656	-0.41987060546875	0.699101257324219	0.509856964111328	-0.458108123779297	0.698119995117188	0.495619537353516	-0.539331604003906	0.671517517089844	0.544221252441406	-0.550146911621094	0.633032165527344	0.550861511230469	-0.611879760742188	0.702454650878906	0.477817108154297	-0.618871887207031	0.68795703125	0.498356903076172	-0.604039611816406	0.648178649902344	0.493202239990234	-0.686862915039063	0.747181091308594	0.486817413330078	-0.802133544921875	0.774726440429687	0.464468933105469	-0.800570251464844	0.727459594726563
115	0.222439024390244	0.7847041015625	-0.364640045166016	0.549535034179687	0.780070983886719	-0.330586639404297	0.699954833984375	0.759540466308594	-0.316546417236328	0.719238830566406	0.598347595214844	-0.25516178894043	0.7416396484375	0.65556884765625	-0.296748077392578	0.719499633789063	0.566879028320313	-0.238362579345703	0.738196166992188	0.675541259765625	-0.141332672119141	0.709595825195312	0.646997314453125	-0.137358154296875	0.577286010742187	0.515851318359375	-0.4194052734375	0.70471044921875	0.510545318603516	-0.457770416259766	0.704736450195312	0.496609283447266	-0.539672546386719	0.679687927246094	0.544876892089844	-0.551143188476563	0.641129577636719	0.552072814941406	-0.611347229003906	0.712113037109375	0.479026733398437	-0.618803771972656	0.697916137695312	0.499223083496094	-0.604792541503906	0.657760986328125	0.494535186767578	-0.685414367675781	0.758725219726562	0.488286254882812	-0.800117431640625	0.7888583984375	0.466072418212891	-0.799668579101563	0.74157080078125
116	0.224390243902439	0.784663696289063	-0.364912872314453	0.549631530761719	0.780133728027344	-0.330769195556641	0.700087707519531	0.759481811523438	-0.316413146972656	0.719293334960937	0.598896911621094	-0.253922973632812	0.742518493652344	0.655903747558594	-0.296498016357422	0.720553344726562	0.567473510742187	-0.237610321044922	0.739249267578125	0.675418823242188	-0.141369659423828	0.709595825195312	0.646652893066406	-0.137898208618164	0.577433288574219	0.516467163085938	-0.418844665527344	0.710047424316406	0.511304656982422	-0.457175140380859	0.710944091796875	0.497349853515625	-0.539593505859375	0.687471984863281	0.545618835449219	-0.551914978027344	0.648871643066406	0.55334814453125	-0.610625915527344	0.721110473632813	0.480102233886719	-0.618400146484375	0.707518493652344	0.50015478515625	-0.605322448730469	0.666968078613281	0.496080688476563	-0.683494140625	0.769669189453125	0.489605590820313	-0.797840209960938	0.802192321777344	0.467494812011719	-0.79843017578125	0.754962829589844
117	0.226341463414634	0.784610107421875	-0.365138793945312	0.549711486816406	0.780084899902344	-0.330794250488281	0.700257263183594	0.759478759765625	-0.316507171630859	0.719528686523437	0.599615234375	-0.25459375	0.742879821777344	0.656266479492188	-0.296201782226562	0.721614196777344	0.568004150390625	-0.23689518737793	0.740199340820313	0.675328735351562	-0.141401290893555	0.709578125	0.646272644042969	-0.138349655151367	0.577670959472656	0.516992065429688	-0.418160034179688	0.71513037109375	0.511925720214844	-0.456480010986328	0.716820434570313	0.498161041259766	-0.539403076171875	0.694830505371094	0.5462783203125	-0.552474426269531	0.656452941894531	0.554485473632812	-0.609746154785156	0.729736511230469	0.481164764404297	-0.617761474609375	0.716628540039063	0.500944244384766	-0.605909362792969	0.675692932128906	0.497268005371094	-0.681687133789063	0.779913635253906	0.491068939208984	-0.795412719726562	0.814743103027344	0.468796417236328	-0.797087707519531	0.767624755859375
118	0.228292682926829	0.784571716308594	-0.365409088134766	0.549752258300781	0.780062438964844	-0.330791595458984	0.700332824707031	0.759446350097656	-0.316673950195312	0.719772888183594	0.599985290527344	-0.253939270019531	0.74372216796875	0.656598083496094	-0.295875610351563	0.722417785644531	0.568585205078125	-0.2361640625	0.741105895996094	0.67525634765625	-0.141402893066406	0.709556701660156	0.645827392578125	-0.13908952331543	0.5777353515625	0.517599609375	-0.417340881347656	0.719944641113281	0.512721923828125	-0.455748046875	0.722297485351562	0.499195770263672	-0.539044738769531	0.701926696777344	0.547205261230469	-0.552839050292969	0.663419799804687	0.555467041015625	-0.608727478027344	0.737693115234375	0.482381378173828	-0.617036071777344	0.725107727050781	0.501945281982422	-0.606017761230469	0.683971496582031	0.498403900146484	-0.679880676269531	0.789610290527344	0.492228973388672	-0.792836242675781	0.826605529785156	0.470127319335937	-0.795466369628906	0.779491943359375
